<?xml version="1.0" encoding="UTF-8" standalone="no"?>
<!-- Created with Inkscape (http://www.inkscape.org/) -->

<svg
   width="207.99448mm"
   height="68.435471mm"
   viewBox="0 0 207.99448 68.435471"
   version="1.1"
   id="svg1"
   xml:space="preserve"
   xmlns="http://www.w3.org/2000/svg"
   xmlns:svg="http://www.w3.org/2000/svg"
   xmlns:rdf="http://www.w3.org/1999/02/22-rdf-syntax-ns#"
   xmlns:cc="http://creativecommons.org/ns#"
   xmlns:dc="http://purl.org/dc/elements/1.1/"><defs
     id="defs1"><rect
       x="172.87544"
       y="187.6331"
       width="301.47791"
       height="149.68483"
       id="rect3" /><rect
       x="165.71429"
       y="400"
       width="585.12268"
       height="821.17352"
       id="rect1" /></defs><metadata
     id="metadata1"><rdf:RDF><cc:Work
         rdf:about=""><dc:format>image/svg+xml</dc:format><dc:type
           rdf:resource="http://purl.org/dc/dcmitype/StillImage" /></cc:Work></rdf:RDF></metadata><text
     xml:space="preserve"
     transform="matrix(0.34632487,0,0,0.34632487,-56.717967,-166.06259)"
     id="text1"
     style="font-size:96px;line-height:1.7;writing-mode:lr-tb;direction:ltr;white-space:pre;shape-inside:url(#rect1);display:inline;fill:#000000"><tspan
       x="165.71484"
       y="512.27119"
       id="tspan5"><tspan
         style="font-weight:300;font-size:85.3333px;font-family:'Helvetica Neue';-inkscape-font-specification:'Helvetica Neue Light'"
         id="tspan1"> </tspan><tspan
         style="font-weight:300;font-family:'Helvetica Neue';-inkscape-font-specification:'Helvetica Neue Light'"
         id="tspan2">
</tspan></tspan><tspan
       x="165.71484"
       y="675.47119"
       id="tspan11"><tspan
         style="font-weight:bold;font-stretch:condensed;font-family:'DIN Condensed';-inkscape-font-specification:'DIN Condensed,  Bold Condensed'"
         id="tspan7">Schematismus</tspan></tspan></text><path
     d="m 182.77811,3.2459444 c -2.18501,-1.58965 -4.9756,-2.71358 -7.7712,-3.13382 -1.56084,-0.24048 -4.88983,-0.0748 -6.45924,0.31254 -5.04615,1.25394 -9.30979,4.80022 -11.483,9.54133 -1.86109,4.0990406 -1.9974,9.0963206 -0.36261,13.3450706 0.69163,1.77379 1.77897,3.47197 3.60949,5.6106 l 0.44228,0.51161 -0.62768,-0.2082 c -0.34771,-0.1168 -1.81697,-0.8369 -3.27808,-1.5859 l -2.65943,-1.36775 -1.90181,1.61024 c -1.05213,0.87642 -1.93974,1.61203 -1.96775,1.62287 -0.0379,0.002 -0.10004,-0.30904 -0.13689,-0.68757 -0.27355,-2.79158 -3.32115,-4.53087 -5.97871,-3.42705 -0.64339,0.26785 -0.89104,0.46009 -1.53292,1.16517 -0.65093,0.715 -0.80105,0.95972 -0.95236,1.58472 -0.11405,0.40462 -0.19308,0.9502 -0.17068,1.22483 l 0.0137,0.48422 -50.760701,0.0807 c -27.91835,0.0453 -51.15999,0.0805 -51.6451,0.0748 l -0.8654,-0.008 -0.0207,-1.25387 c -0.005,-0.69379 0.006,-1.50229 0.0193,-1.81665 l 0.0212,-0.56186 6.20698,-0.0154 6.20612,-0.0344 -0.006,-0.55106 c -0.005,-1.11205 -0.0197,-5.48432 -0.0137,-5.55116 0.008,-0.029 -0.74687,-0.31671 -1.67439,-0.63443 l -1.67081,-0.55855 -0.0678,-1.24217 -0.0588,-1.25209 1.72308,-0.55618 1.71317,-0.56518 -0.002,-0.8555 c 0.0215,-4.8112406 -0.0557,-13.1447906 -0.11543,-13.1990206 -0.0497,-0.0453 -2.50315,-0.0632 -5.46888,-0.0573 l -5.37952,0.0243 0.0347,4.59002 c 0.005,2.52849 0.0172,4.8284606 0.0208,5.1039706 l -0.005,0.52306 -0.64771,-0.0267 c -0.36134,-0.002 -1.47338,0.002 -2.47159,0.002 l -1.82389,0.0285 -0.0219,-5.1229706 -0.0308,-5.11304 -0.94944,0.0256 c -0.52215,0.0152 -2.47976,0.0308 -4.35241,0.0331 l -3.41202,0.0174 0.0281,5.05612 c 0.0162,2.77514 -0.0189,5.0678306 -0.056,5.0885806 -0.17711,0.0748 -4.72191,0.06 -4.80135,-0.0122 -0.0497,-0.0453 -0.10034,-2.3433906 -0.11574,-5.0995506 l -0.0163,-5.00914 -1.15088,-0.0122 c -7.8529,-0.0122 -9.35339,0.0205 -9.53421,0.21913 -0.14557,0.13994 -0.19851,2.25284 -0.17298,7.05241 l 0.0367,6.8619406 0.44435,0.15029 c 0.24203,0.0932 0.9465,0.31684 1.55521,0.52593 0.60872,0.20912 1.17861,0.40102 1.24634,0.42637 0.0777,0.0342 0.14313,0.62071 0.14632,1.29553 l 0.029,1.22496 -1.71318,0.5652 -1.70323,0.57424 0.0213,3.08861 0.0122,3.09854 0.85548,-0.002 c 6.46177,-0.0559 11.39681,-0.0308 11.50427,0.0308 0.1273,0.0796 0.17575,3.13838 0.0554,3.41022 -0.0353,0.0586 -2.67495,0.12547 -5.88819,0.12409 -3.20332,0.008 -5.8538,0.0464 -5.88995,0.0862 -0.0363,0.0397 -0.0717,0.49772 -0.0757,1.02075 -0.008,0.86541 -0.0233,0.92321 -0.32676,0.93747 -0.2656,0.0122 -0.52112,-0.16569 -1.4347502,-0.99744 -1.48958,-1.35607 -2.24458,-1.64388 -3.9899401,-1.562 -1.47975,0.0695 -2.41139,0.47437 -3.49434,1.50434 -1.15528006,1.10942 -1.65026006,2.31145 -1.61166006,3.94474 0.0435,2.34606 1.59138006,4.33635 3.89446006,4.99832 1.23374,0.36041 2.35215,0.28892 3.6018701,-0.22602 0.81144,-0.33276 1.02294,-0.48528 1.71906,-1.24993 0.70606,-0.75561 0.8533802,-0.85759 1.2228802,-0.88444 l 0.42728,-0.0106 0.0272,0.98739 0.0272,0.98738 0.57003,-0.008 c 0.31348,-0.006 3.15545,-0.0151 6.31089,-0.0298 8.46814,-0.0455 116.546441,-0.66681 120.451691,-0.70742 l 3.3361,-0.0137 -0.0106,0.58988 c -0.0122,0.33333 0.13126,0.97301 0.2953,1.43115 0.28044,0.70933 0.42304,0.91178 1.1579,1.58078 0.99306,0.90405 1.71011,1.19364 2.95495,1.18276 2.23311,-0.0192 3.99128,-1.65123 4.29014,-3.99434 0.0353,-0.25834 0.0825,-0.46969 0.11146,-0.46153 0.0379,-0.002 0.92725,0.71701 1.97545,1.58046 l 1.90859,1.57409 2.35594,-1.25131 c 2.3469,-1.24137 4.09636,-2.04592 4.21553,-1.93744 0.0397,0.0361 -0.0778,0.16526 -0.26216,0.28798 -0.52422,0.37634 -2.22146,2.69949 -2.91252,3.97725 -2.90092,5.4407 -2.60572,12.13841 0.77551,17.34144 1.65949,2.54594 4.18733,4.75643 7.07708,6.1704 1.09991,0.54731 3.41294,1.21834 4.87803,1.44429 1.58885,0.22968 4.92778,0.0729 6.36528,-0.2891 2.26334,-0.591 4.28211,-1.5318 6.16746,-2.88459 1.16862,-0.82484 3.6656,-3.52775 4.39729,-4.75039 1.10248,-1.82942 2.09717,-4.53789 2.36774,-6.4709 0.17884,-1.25373 0.21552,-3.30885 0.0807,-4.35775 -0.0827,-0.54749 -0.12395,-1.02088 -0.11496,-1.03081 0.0181,-0.0199 0.58263,0.0583 1.24382,0.1698 1.46508,0.22597 3.65031,0.1995 5.13021,-0.0696 1.50846,-0.27942 3.92473,-1.25786 5.32739,-2.16023 1.06144,-0.66843 1.32538,-0.91849 2.70861,-2.43786 1.36512,-1.49953 1.60654,-1.82456 2.15653,-2.86755 0.85304,-1.67513 1.312,-3.03708 1.5842,-4.73248 0.60797,-3.85963 -0.34859,-7.83599 -2.6472,-11.0364 -0.90519,-1.25992 -3.00054,-3.16749 -4.30988,-3.92362 -3.14602,-1.81074 -6.58013,-2.46718 -9.94823,-1.9194 l -1.35792,0.2348 0.11923,-1.30797 c 0.37408,-3.98175 -0.88752,-8.3811 -3.3333,-11.6791706 -0.61912,-0.83605 -2.76398,-2.98845 -3.56124,-3.56898 z m -1.06877,7.8169306 c 0.31765,0.48894 0.82101,1.49201 1.10235,2.22032 0.44276,1.12952 0.53185,1.61015 0.60838,3.24167 0.0722,1.53667 0.0338,2.13739 -0.23346,3.12908 -0.42205,1.54084 -1.17017,3.0209 -2.1747,4.30387 l -0.78935,1.0067 0.86397,0.78654 c 0.47666,0.43395 1.76498,1.5523 2.87364,2.48897 l 2.00064,1.71236 1.01255,-1.11221 c 1.21143,-1.33071 1.75373,-1.72691 3.28356,-2.35006 0.92349,-0.37604 1.46016,-0.48677 2.60837,-0.53113 1.66945,-0.0783 2.84094,0.17092 4.2063,0.90541 1.80334,0.95161 3.28093,2.66 3.96887,4.55754 0.50219,1.38339 0.54496,3.51083 0.10035,4.97668 -0.48533,1.61035 -0.9086,2.31468 -2.17149,3.56222 -1.20773,1.20695 -2.10425,1.75284 -3.55079,2.12491 -3.17319,0.85234 -6.44531,-0.20148 -8.561,-2.74501 -0.43236,-0.50258 -0.81328,-0.92201 -0.85122,-0.92023 -0.0668,-0.006 -5.47404,4.69633 -5.69103,4.93468 -0.0452,0.0497 0.16957,0.37229 0.47105,0.71939 1.37473,1.54211 2.44727,3.7353 2.73592,5.63257 0.33356,2.24689 -0.11268,4.89161 -1.16929,6.88998 -0.61963,1.17938 -2.40966,3.14563 -3.52582,3.87295 -3.31958,2.19011 -7.62693,2.37316 -11.29053,0.47263 -1.10079,-0.56628 -3.0878,-2.39337 -3.79436,-3.47248 -1.16769,-1.78947 -1.79856,-3.88932 -1.82236,-6.01765 -0.035,-1.55742 0.26949,-2.96915 0.9481,-4.51252 0.46415,-1.04847 0.69388,-1.4205 1.62149,-2.51923 0.90138,-1.04997 1.25575,-1.39934 2.08542,-1.95159 1.21561,-0.83655 2.44546,-1.36958 3.8188,-1.68117 0.57372,-0.13157 1.06162,-0.26846 1.08874,-0.29825 0.0271,-0.0298 0.0547,-0.65851 0.0588,-1.38121 l 0.0137,-1.33153 0.41916,0.0184 c 0.31436,0.0137 0.47057,0.10157 0.68445,0.40518 1.70662,2.33459 4.34333,2.61016 6.14241,0.63398 1.16623,-1.28105 1.69396,-2.79833 1.66912,-4.74598 -0.0568,-2.83027 -1.49595,-5.13938 -3.58592,-5.71628 -1.42522,-0.38945 -2.67671,0.0875 -3.86651,1.47427 -0.63104,0.7331 -0.7594,0.83416 -1.12978,0.84204 l -0.41736,0.0196 0.0175,-0.43811 c 0.0174,-0.23847 0.0169,-0.85637 0.0107,-1.38845 l -0.0256,-0.94945 -1.13355,-0.25104 c -0.63406,-0.14131 -1.6483,-0.48356 -2.26058,-0.76855 -1.04847,-0.46414 -1.24529,-0.60702 -2.66537,-1.89983 -1.34063,-1.22047 -1.61143,-1.52149 -2.0761,-2.30774 -1.58257,-2.73015 -1.98968,-5.73411 -1.15564,-8.62518 0.56505,-1.9373 0.96936,-2.64073 2.5153,-4.3388706 1.12103,-1.23139 1.44012,-1.52204 2.21733,-1.97681 3.22993,-1.87218 6.92574,-2.12162 10.14067,-0.66585 1.93347,0.88846 3.46826,2.19489 4.65404,3.9645106 z"
     id="path1"
     style="fill:#d45500;stroke:none;stroke-width:0.0134295" /><text
     xml:space="preserve"
     transform="matrix(0.26458333,0,0,0.26458333,81.794979,-53.481449)"
     id="text3"
     style="font-style:italic;font-variant:normal;font-weight:500;font-stretch:normal;font-size:74.6667px;line-height:1.7;font-family:Cochin;-inkscape-font-specification:'Cochin Medium Italic';letter-spacing:-0.24px;writing-mode:lr-tb;direction:ltr;white-space:pre;shape-inside:url(#rect3);display:inline;fill:#241f1c"><tspan
       x="172.875"
       y="269.96351"
       id="tspan12">the</tspan></text><text
     xml:space="preserve"
     style="font-style:italic;font-variant:normal;font-weight:500;font-stretch:normal;font-size:22.7773px;line-height:1.7;font-family:Cochin;-inkscape-font-specification:'Cochin Medium Italic';letter-spacing:-0.0732127px;writing-mode:lr-tb;direction:ltr;fill:#241f1c;stroke-width:0.305052"
     x="53.68708"
     y="17.837753"
     id="text4"><tspan
       id="tspan4"
       style="font-style:normal;font-variant:normal;font-weight:bold;font-stretch:normal;font-family:'DIN Condensed';-inkscape-font-specification:'DIN Condensed,  Bold';stroke-width:0.305052"
       x="53.68708"
       y="17.837753">Unlocking</tspan></text></svg>
